<svg id="Layer_1" enable-background="new 0 0 66 66" height="512" viewBox="0 0 66 66" width="512" xmlns="http://www.w3.org/2000/svg"><g><path d="m60.6 51.4v-45.6c0-2.7-2.2-4.8-4.8-4.8h-45.5c-2.7 0-4.9 2.2-4.9 4.8v45.5c0 2.7 2.2 4.8 4.8 4.8h37.7l3.2 6.3c.6 1.1 1.6 1.9 2.8 2.3.5.1.9.2 1.4.2.8 0 1.5-.2 2.2-.6 1.1-.6 1.9-1.6 2.2-2.8s.2-2.5-.5-3.6l-1.4-2.3c1.7-.7 2.8-2.3 2.8-4.2zm-37.5-46.5c0-.6.4-1 1-1h3.2c.6 0 1 .4 1 1v3.2c0 .6-.4 1-1 1h-3.2c-.6 0-1-.4-1-1zm-6.2 0c0-.6.4-1 1-1h3.2c.5 0 1 .4 1 1v3.2c0 .6-.5 1-1 1h-3.2c-.6 0-1-.4-1-1zm-6.2 0c0-.6.4-1 1-1h3.2c.6 0 1 .4 1 1v3.2c0 .6-.4 1-1 1h-3.2c-.6 0-1-.4-1-1zm47.9 46.5c0 1.1-.7 2.1-1.7 2.6l-6.9-11.5c.6-.8 1-1.8 1.3-2.8.7-2.4.4-4.9-.8-7-1.6-2.9-4.7-4.8-8.1-4.8-.3 0-.7.2-.9.5s-.2.7 0 1l2.6 4.6-1.7 3.2-3.5-.2-2.6-4.6c-.2-.3-.5-.5-.9-.5s-.7.2-.9.5c-1.8 2.8-1.9 6.4-.2 9.3 1.2 2.2 3.2 3.7 5.5 4.4.9.2 1.7.4 2.6.4h.4l4 7.8h-36.5c-1.6 0-2.8-1.3-2.8-2.8v-39.4h51.2v39.3z"/><path d="m14.4 25.9c.3 0 .5-.1.7-.3.4-.4.4-1 0-1.4l-3.3-3.3 3.3-3.3c.4-.4.4-1 0-1.4s-1-.4-1.4 0l-4 4c-.4.4-.4 1 0 1.4l4 4c.2.2.5.3.7.3z"/><path d="m22 25.6c.2.2.5.3.7.3s.5-.1.7-.3l4-4c.4-.4.4-1 0-1.4l-4-4c-.4-.4-1-.4-1.4 0s-.4 1 0 1.4l3.3 3.3-3.3 3.3c-.4.4-.4 1 0 1.4z"/><path d="m19.8 13.5c-.5-.1-1.1.3-1.1.8l-2.2 13.4c-.1.5.3 1.1.8 1.1h.2c.5 0 .9-.3 1-.8l2.2-13.4c.1-.5-.3-1.1-.9-1.1z"/><path d="m54.4 16.1h-22.7c-.6 0-1 .4-1 1s.4 1 1 1h22.7c.6 0 1-.4 1-1s-.5-1-1-1z"/><path d="m54.4 20.5h-22.7c-.6 0-1 .4-1 1s.4 1 1 1h22.7c.6 0 1-.4 1-1s-.5-1-1-1z"/><path d="m54.4 24.6h-22.7c-.6 0-1 .4-1 1s.4 1 1 1h22.7c.6 0 1-.4 1-1s-.5-1-1-1z"/><path d="m16.6 31v4.5c0 .5-.4 1-1 1h-4.5c-.5 0-1-.5-1-1v-4.5c0-.6.5-1 1-1h4.5c.6 0 1 .5 1 1z"/><path d="m30.1 32.3h-10.1c-.6 0-1 .4-1 1s.4 1 1 1h10.1c.6 0 1-.4 1-1s-.4-1-1-1z"/><path d="m16.6 38.7v4.5c0 .5-.4 1-1 1h-4.5c-.5 0-1-.5-1-1v-4.5c0-.6.5-1 1-1h4.5c.6 0 1 .4 1 1z"/><path d="m30.1 39.9h-10.1c-.6 0-1 .4-1 1s.4 1 1 1h10.1c.6 0 1-.4 1-1s-.4-1-1-1z"/><path d="m16.6 46.3v4.5c0 .5-.4 1-1 1h-4.5c-.5 0-1-.5-1-1v-4.5c0-.6.5-1 1-1h4.5c.6 0 1 .4 1 1z"/><path d="m19 48.5c0 .6.4 1 1 1h15.8c.6 0 1-.4 1-1s-.4-1-1-1h-15.8c-.6 0-1 .5-1 1z"/></g></svg>