<svg id="Layer_1" viewBox="0 0 512 512" xmlns="http://www.w3.org/2000/svg" data-name="Layer 1"><path d="m9.87 220.89c5.82 19.06 16.11 36.87 29.78 51.5 2.42 2.59 6.26 3.28 9.44 1.69l29.83-14.98c6.03 4.51 12.53 8.27 19.42 11.23l1.95 33.33c.21 3.55 2.73 6.53 6.19 7.33 9.7 2.23 19.7 3.36 29.74 3.36s20.04-1.13 29.74-3.36c3.46-.8 5.98-3.78 6.19-7.33l1.95-33.34c6.89-2.97 13.39-6.73 19.42-11.23l29.83 14.98c3.17 1.59 7.02.9 9.44-1.69 13.67-14.64 23.96-32.45 29.78-51.5 1.04-3.4-.29-7.07-3.25-9.02l-27.91-18.36c.88-7.46.88-14.97 0-22.43l27.91-18.36c2.97-1.95 4.29-5.62 3.25-9.02-5.82-19.06-16.11-36.87-29.78-51.5-2.42-2.6-6.26-3.28-9.44-1.69l-29.83 14.98c-6.03-4.51-12.53-8.27-19.42-11.23l-1.95-33.33c-.21-3.55-2.73-6.53-6.19-7.33-19.45-4.48-40.02-4.48-59.47 0-3.46.8-5.98 3.78-6.19 7.33l-1.95 33.33c-6.89 2.97-13.39 6.73-19.42 11.23l-29.83-14.98c-3.17-1.59-7.02-.9-9.44 1.69-13.67 14.64-23.96 32.45-29.78 51.5-1.04 3.4.29 7.07 3.25 9.02l27.91 18.36c-.88 7.46-.88 14.97 0 22.43l-27.91 18.36c-2.97 1.95-4.29 5.62-3.25 9.02zm85.44-38.59c0-22.55 18.34-40.89 40.89-40.89s40.89 18.34 40.89 40.89-18.34 40.89-40.89 40.89-40.89-18.34-40.89-40.89zm314.83 96.88 37.01-37.01-37.01-37.01c-3.12-3.12-3.12-8.19 0-11.31s8.19-3.12 11.31 0l42.67 42.67c3.12 3.12 3.12 8.19 0 11.31l-42.67 42.67c-1.56 1.56-3.61 2.34-5.66 2.34s-4.09-.78-5.66-2.34c-3.12-3.12-3.12-8.19 0-11.31zm-117.48-173.55c-4.42 0-8-3.58-8-8s3.58-8 8-8h24.43c4.42 0 8 3.58 8 8s-3.58 8-8 8zm141.38 0c-4.42 0-8-3.58-8-8s3.58-8 8-8h24.43c4.42 0 8 3.58 8 8s-3.58 8-8 8zm-70.69 0c-4.42 0-8-3.58-8-8s3.58-8 8-8h24.43c4.42 0 8 3.58 8 8s-3.58 8-8 8zm122.64-67.09h-300.36c-4.42 0-8 3.58-8 8s3.58 8 8 8h300.36c1.91 0 3.53 1.62 3.53 3.53v85.61h-209.58c-4.42 0-8 3.58-8 8s3.58 8 8 8h209.58v289.04c0 1.91-1.62 3.53-3.53 3.53h-100.86v-122.05c0-4.42-3.58-8-8-8h-359.61c-4.42 0-8 3.58-8 8v130.05c0 4.42 3.58 8 8 8h468.47c10.77 0 19.53-8.76 19.53-19.53v-390.65c0-10.77-8.76-19.53-19.53-19.53zm-439.41 348.69h24.43c4.42 0 8 3.58 8 8s-3.58 8-8 8h-24.43c-4.42 0-8-3.58-8-8s3.58-8 8-8zm-8-19.77c0-4.42 3.58-8 8-8h24.43c4.42 0 8 3.58 8 8s-3.58 8-8 8h-24.43c-4.42 0-8-3.58-8-8zm8 47.55h24.43c4.42 0 8 3.58 8 8s-3.58 8-8 8h-24.43c-4.42 0-8-3.58-8-8s3.58-8 8-8zm55.41-27.77h24.43c4.42 0 8 3.58 8 8s-3.58 8-8 8h-24.43c-4.42 0-8-3.58-8-8s3.58-8 8-8zm-8-19.77c0-4.42 3.58-8 8-8h24.43c4.42 0 8 3.58 8 8s-3.58 8-8 8h-24.43c-4.42 0-8-3.58-8-8zm8 47.55h190.67c4.42 0 8 3.58 8 8s-3.58 8-8 8h-190.67c-4.42 0-8-3.58-8-8s3.58-8 8-8zm55.41-27.77h24.43c4.42 0 8 3.58 8 8s-3.58 8-8 8h-24.43c-4.42 0-8-3.58-8-8s3.58-8 8-8zm-8-19.77c0-4.42 3.58-8 8-8h24.43c4.42 0 8 3.58 8 8s-3.58 8-8 8h-24.43c-4.42 0-8-3.58-8-8zm63.41 19.77h24.43c4.42 0 8 3.58 8 8s-3.58 8-8 8h-24.43c-4.42 0-8-3.58-8-8s3.58-8 8-8zm-8-19.77c0-4.42 3.58-8 8-8h24.43c4.42 0 8 3.58 8 8s-3.58 8-8 8h-24.43c-4.42 0-8-3.58-8-8zm63.41 19.77h24.43c4.42 0 8 3.58 8 8s-3.58 8-8 8h-24.43c-4.42 0-8-3.58-8-8s3.58-8 8-8zm-8-19.77c0-4.42 3.58-8 8-8h24.43c4.42 0 8 3.58 8 8s-3.58 8-8 8h-24.43c-4.42 0-8-3.58-8-8zm63.41 47.55h24.43c4.42 0 8 3.58 8 8s-3.58 8-8 8h-24.43c-4.42 0-8-3.58-8-8s3.58-8 8-8zm-8-19.77c0-4.42 3.58-8 8-8h24.43c4.42 0 8 3.58 8 8s-3.58 8-8 8h-24.43c-4.42 0-8-3.58-8-8zm32.43-19.77h-24.43c-4.42 0-8-3.58-8-8s3.58-8 8-8h24.43c4.42 0 8 3.58 8 8s-3.58 8-8 8zm-18.78-170.31-37.01 37.01 37.01 37.01c3.12 3.12 3.12 8.19 0 11.31-1.56 1.56-3.61 2.34-5.66 2.34s-4.09-.78-5.66-2.34l-42.67-42.67c-3.12-3.12-3.12-8.19 0-11.31l42.67-42.67c3.12-3.12 8.19-3.12 11.31 0s3.12 8.19 0 11.31zm24.34 102.24c-4.28-1.09-6.87-5.44-5.79-9.72l28.23-111.3c1.09-4.28 5.44-6.88 9.72-5.79s6.87 5.44 5.79 9.72l-28.23 111.3c-.92 3.62-4.18 6.04-7.75 6.04-.65 0-1.31-.08-1.97-.25z"/></svg>