<svg id="Layer_1" enable-background="new 0 0 512 512" height="512" viewBox="0 0 512 512" width="512" xmlns="http://www.w3.org/2000/svg"><g><circle cx="248.7" cy="248.6" fill="#5adcff" r="232.6"/><circle cx="408.6" cy="408.8" fill="#ffd100" r="87.2"/><circle cx="408.6" cy="408.8" fill="#e68700" r="72.7"/><path d="m408.6 399.5c-7.9 0-14.5-4.7-14.5-10.2 0-5.1 7-11.6 14.5-11.6s14.5 4.7 14.5 9.7h14.5c0-12-10.3-20.6-21.8-23.3v-8.2h-14.5v8.4c-11.9 3.2-21.8 13.8-21.8 25.1 0 13.6 13 24.7 29.1 24.7 7.9 0 14.5 4.7 14.5 10.2 0 5.4-6.3 11.6-14.5 11.6-8 0-14.5-4.3-14.5-9.7h-14.5c0 11.5 9.2 20.8 21.8 23.4v8.8h14.5v-9c12.4-3 21.8-13.3 21.8-25.2 0-13.7-13-24.7-29.1-24.7z" fill="#f4f2f2"/><path d="m248.7 30.8v72.7h-232.6v-72.7c0-8 6.5-14.5 14.5-14.5h203.5c8.1 0 14.6 6.5 14.6 14.5z" fill="#848ba5"/><path d="m248.7 103.5v58.1c0 8-6.5 14.5-14.5 14.5h-203.5c-8 0-14.5-6.5-14.5-14.5v-58.1z" fill="#68708e"/><path d="m37.9 45.1h65.4v36.3h-65.4z" fill="#ffd61a"/><g><path d="m37.9 125h14.5v21.8h-14.5z" fill="#c6c7cc"/></g><g><path d="m67 125h14.5v21.8h-14.5z" fill="#c6c7cc"/></g><g><path d="m96.1 125h14.5v21.8h-14.5z" fill="#c6c7cc"/></g><g><path d="m154.2 125h14.5v21.8h-14.5z" fill="#c6c7cc"/></g><g><path d="m183.3 125h14.5v21.8h-14.5z" fill="#c6c7cc"/></g><g><path d="m212.4 125h14.5v21.8h-14.5z" fill="#c6c7cc"/></g><path d="m315.3 352.1-19.6 12.6c-6.7 4.3-15 5.3-22.5 2.8-10.5-3.6-22.4 0-29.3 9.1-16.6 22.2-14.2 15.9-16.4 48-.7 10.4-7.4 19.4-17.2 22.9l-45.9 18c-86.7-33.7-148.3-118.1-148.3-216.9 0-2.4 0-4.8.1-7.2l34.8 11.1c7.6 2.2 15.7.9 22.2-3.6l28.9-19.9c7.3-5.2 6.8-4 74.6-10 11-.9 21.5 5.2 26.1 15.3 15.2 33.3 15.9 37.4 23 42.7l20.7 15.6c5.4 4 12.1 5.8 18.8 5l25.9-3.1c9.7-1.1 19.1 3.1 24.6 11.1l6.6 9.6c8.6 12.2 5.3 28.8-7.1 36.9z" fill="#73d14f"/><path d="m16.3 241.4-.2-.1" fill="none" stroke="#000" stroke-miterlimit="10" stroke-width="15"/><path d="m469 173.6-52.4 51.2c-4.2 3.9-9.5 6.2-15.1 6.5l-42.6 2.5c-6.6.4-13.2-2-18-6.4l-16.4-15.4c-12.4-11.6-9.4-32.5 6.7-39.8 7.1-3.1 12.2-9.2 13.9-16.6 12.5-53.3 8.4-44.8 50.2-87.7 33.5 27.3 59.4 63.9 73.7 105.7z" fill="#73d14f"/></g></svg>