<svg id="Idea_Brainstorm" viewBox="0 0 64 64" xmlns="http://www.w3.org/2000/svg" data-name="Idea Brainstorm"><path d="m32 7c.55 0 1-.45 1-1v-3c0-.55-.45-1-1-1s-1 .45-1 1v3c0 .55.45 1 1 1z"/><path d="m56 26h-3c-.55 0-1 .45-1 1s.45 1 1 1h3c.55 0 1-.45 1-1s-.45-1-1-1z"/><path d="m11 26h-3c-.55 0-1 .45-1 1s.45 1 1 1h3c.55 0 1-.45 1-1s-.45-1-1-1z"/><path d="m46.85 13.15c.26 0 .51-.1.71-.29l2.12-2.12c.39-.39.39-1.02 0-1.41s-1.02-.39-1.41 0l-2.12 2.12c-.39.39-.39 1.02 0 1.41.2.2.45.29.71.29z"/><path d="m16.44 41.14-2.12 2.12c-.39.39-.39 1.02 0 1.41.2.2.45.29.71.29s.51-.1.71-.29l2.12-2.12c.39-.39.39-1.02 0-1.41s-1.02-.39-1.41 0z"/><path d="m47.56 41.14c-.39-.39-1.02-.39-1.41 0s-.39 1.02 0 1.41l2.12 2.12c.2.2.45.29.71.29s.51-.1.71-.29c.39-.39.39-1.02 0-1.41l-2.12-2.12z"/><path d="m16.44 12.86c.2.2.45.29.71.29s.51-.1.71-.29c.39-.39.39-1.02 0-1.41l-2.12-2.12c-.39-.39-1.02-.39-1.41 0s-.39 1.02 0 1.41l2.12 2.12z"/><path d="m44 13.59c-3.86-3.46-8.86-5.05-14.05-4.48-8.34.93-15.01 7.66-15.86 16.02-.64 6.32 2 12.38 7.05 16.21 1.57 1.18 2.56 2.85 2.8 4.66h-.94c-.55 0-1 .45-1 1s.45 1 1 1h1v3h-1c-.55 0-1 .45-1 1s.45 1 1 1h1v2c0 1.65 1.35 3 3 3h1v1c0 1.65 1.35 3 3 3h2c1.65 0 3-1.35 3-3v-1h1c1.65 0 3-1.35 3-3v-2h1c.55 0 1-.45 1-1s-.45-1-1-1h-1v-3h1c.55 0 1-.45 1-1s-.45-1-1-1h-.94c.24-1.81 1.23-3.47 2.78-4.65 4.55-3.43 7.16-8.66 7.16-14.35 0-5.11-2.19-10-6-13.41zm-2.36 26.17c-2.07 1.56-3.35 3.8-3.6 6.24h-12.08c-.25-2.44-1.54-4.68-3.61-6.26-4.49-3.4-6.84-8.79-6.27-14.41.76-7.42 6.68-13.41 14.09-14.23 4.62-.51 9.06.9 12.5 3.98 3.39 3.03 5.33 7.38 5.33 11.92 0 5.05-2.32 9.7-6.36 12.76z"/><path d="m37 24c-1.65 0-3 1.35-3 3v1h-4v-1c0-1.65-1.35-3-3-3s-3 1.35-3 3 1.35 3 3 3h1v13c0 .55.45 1 1 1s1-.45 1-1v-13h4v13c0 .55.45 1 1 1s1-.45 1-1v-13h1c1.65 0 3-1.35 3-3s-1.35-3-3-3zm-9 4h-1c-.55 0-1-.45-1-1s.45-1 1-1 1 .45 1 1zm9 0h-1v-1c0-.55.45-1 1-1s1 .45 1 1-.45 1-1 1z"/></svg>