<svg id="Layer_1" enable-background="new 0 0 512 512" viewBox="0 0 512 512" xmlns="http://www.w3.org/2000/svg"><path d="m363.204 149.372 3.687 7.178-13.196 16.479-10.795 3.637c-.729.25-1.402.667-1.936 1.199l-4.961 4.952-59.807 59.784-1.396-1.739c-.44-.548-.93-1.093-1.454-1.617-.516-.516-1.054-1.003-1.646-1.489l-1.703-1.4 59.77-59.778 4.948-4.959c.534-.534.951-1.207 1.205-1.947l3.633-10.784 16.478-13.185zm-21.13 165.523c.943-.942 2.197-1.462 3.532-1.462 1.337 0 2.595.521 3.539 1.461l28.101 28.134.144-4.625c.352-11.319-4.007-22.358-11.956-30.286-7.617-7.618-18.198-11.987-29.031-11.987-4.172 0-8.295.634-12.254 1.884l-.467.147-26.112 26.092-.147.468c-4.533 14.408-.568 30.613 10.104 41.284 7.616 7.615 18.217 11.982 29.085 11.982.403 0 .805-.006 1.208-.018l4.633-.136-28.134-28.133c-.948-.954-1.47-2.215-1.47-3.55 0-1.31.536-2.601 1.464-3.535zm-172.103-116.634c-.954.948-2.216 1.47-3.551 1.47-1.31 0-2.6-.536-3.536-1.465l-28.134-28.133-.14 4.627c-.341 11.307 4.021 22.349 11.966 30.295 7.61 7.611 18.195 11.977 29.039 11.977h.002c4.175 0 8.302-.634 12.265-1.884l.467-.147 26.082-26.082.146-.468c4.545-14.429.578-30.635-10.102-41.283-7.614-7.623-18.198-11.995-29.039-11.995-.412 0-.824.006-1.237.019l-4.623.14 28.109 28.145c1.946 1.946 1.945 5.119 0 7.071zm92.549 79.789c-.37.12-.75.23-1.12.33l-.57.15-2.8.73 35.189 35.19 20.68-20.65-34.47-34.45-1.03 3.06c-1.2 3.6-3.2 6.81-5.92 9.54-2.57 2.55-5.53 4.46-8.81 5.69-.379.15-.769.28-1.149.41zm-9.895-2.044-16.053-16.042-16.805 1.319-77.865 77.865-1.298 16.784 16.052 16.063 16.775-1.309 77.896-77.865zm5.171-33.105c-3.677 0-7.351 1.565-10.081 4.294-1.392 1.394-2.477 2.996-3.227 4.765l-.525 1.241 15.408 15.408 1.234-.512c1.775-.736 3.392-1.818 4.812-3.227 5.344-5.367 5.723-13.691.847-18.555-2.202-2.201-5.209-3.414-8.468-3.414zm-59.666-23.541 35.2 35.2.72-2.77.16-.6c.1-.36.2-.72.32-1.09.12-.39.26-.79.41-1.21 1.23-3.27 3.15-6.22 5.7-8.78 2.73-2.73 5.94-4.72 9.55-5.93l3.06-1.03-34.47-34.44zm286.26-31v-18.04c0-83.7-68.1-151.79-151.8-151.79h-153.18c-83.69 0-151.77 68.09-151.77 151.79v18.04c-15.4.96-27.64 13.81-27.64 29.47v141.45c0 16.27 13.24 29.51 29.51 29.51h49.83c3.87 0 7.01-3.14 7.01-7v-186.49c0-3.87-3.14-7.01-7.01-7.01h-13.57v-17.97c0-62.67 50.98-113.67 113.64-113.67h153.18c62.68 0 113.67 51 113.67 113.67v17.97h-13.6c-3.87 0-7.01 3.14-7.01 7.01v186.49c0 3.86 3.14 7 7.01 7h29.163v13.379c0 27.009-21.961 48.981-48.954 48.981h-122.879c-3.44-15.59-17.38-27.3-33.99-27.3-19.19 0-34.81 15.62-34.81 34.81 0 19.2 15.62 34.81 34.81 34.81 16.968 0 31.158-12.208 34.199-28.316h122.67c34.715 0 62.958-28.255 62.958-62.985v-13.379h6.663c16.27 0 29.51-13.24 29.51-29.51v-141.45c0-15.65-12.22-28.5-27.61-29.47z"/></svg>