<svg id="Layer_1" enable-background="new 0 0 385.4 512" height="512" viewBox="0 0 385.4 512" width="512" xmlns="http://www.w3.org/2000/svg"><g><g><g><path d="m51.5 512c-26.6 0-48.2-21.6-48.2-48.2v-415.6c0-26.6 21.6-48.2 48.2-48.2h196.8c26.6 0 48.2 21.6 48.2 48.2v415.7c0 26.6-21.6 48.2-48.2 48.2h-196.8z" fill="#525293"/><path d="m248.4 0h-98.4v512h98.4c26.5 0 48.1-21.6 48.1-48.2v-415.6c0-26.6-21.6-48.2-48.1-48.2z" fill="#3d3973"/></g><g><path d="m276.7 463.8c0 15.7-12.7 28.3-28.3 28.3h-196.9c-15.7 0-28.3-12.7-28.3-28.3v-415.6c0-15.7 12.7-28.3 28.3-28.3h196.9c15.7 0 28.3 12.7 28.3 28.3z" fill="#e6eaff"/><path d="m248.4 19.8h-98.2v472.4h98.2c15.6 0 28.3-12.7 28.3-28.3v-415.7c0-15.7-12.7-28.4-28.3-28.4z" fill="#cad4ff"/></g><path d="m296.6 140-.1 59.7h.1c1.8 0 3.3-1.5 3.3-3.3v-53.1c0-1.8-1.5-3.3-3.3-3.3z" fill="#3d3973"/><path d="m3.3 162.8v-32.9c-1.8 0-3.3 1.5-3.3 3.3v26.2c0 1.9 1.5 3.4 3.3 3.4zm0 36.9v-32.9c-1.8 0-3.3 1.5-3.3 3.3v26.2c0 1.9 1.5 3.4 3.3 3.4z" fill="#3d3973"/><g><g fill="#525293"><path d="m197.4 476.5h-94.9c-3.5 0-6.3-2.8-6.3-6.3s2.8-6.3 6.3-6.3h94.9c3.5 0 6.3 2.8 6.3 6.3s-2.8 6.3-6.3 6.3z"/><path d="m183.2 53.6h-66.5c-6.4 0-11.5-5.2-11.5-11.5 0-6.4 5.2-11.5 11.5-11.5h66.5c6.4 0 11.5 5.2 11.5 11.5 0 6.4-5.2 11.5-11.5 11.5z"/></g><g><g><g><path d="m197.4 463.8h-47.5v12.7h47.5c3.5 0 6.3-2.8 6.3-6.3s-2.8-6.4-6.3-6.4z" fill="#3d3973"/></g><g><path d="m191.3 50.2c2.1-2.1 3.4-5 3.4-8.2 0-6.4-5.2-11.5-11.5-11.5h-33.2v23.1h33.2c3.1 0 6-1.3 8.1-3.4z" fill="#3d3973"/></g></g></g></g></g><g><g><path d="m285.8 151.6h-163.8c-16.5 0-29.9 13.1-30.3 29.5 0-.1 0-.3 0-.4v1.2c0-.1 0-.3 0-.4.4 16.4 13.8 29.5 30.3 29.5h194v-29.1c.1-16.8-13.5-30.3-30.2-30.3z" fill="#ff9522"/><path d="m285.8 151.6h-55.8v59.4h86v-29.1c.1-16.8-13.5-30.3-30.2-30.3z" fill="#f77d0f"/></g><g><path d="m122 211c-16.7 0-30.3-13.6-30.3-30.3v30.3 169.2c0 16.7 13.6 30.3 30.3 30.3h216c16.7 0 30.3-13.6 30.3-30.3v-139c0-16.7-13.6-30.3-30.3-30.3z" fill="#febd55"/><path d="m338 211h-188.1l.2 199.5h187.9c16.7 0 30.3-13.6 30.3-30.3v-139c0-16.7-13.6-30.2-30.3-30.2z" fill="#ff9522"/></g><g><path d="m259.6 139.9-58.5-36.6c-5.4-3.4-12.6-1.7-16 3.7l-64.1 102.5c-.3.5-.5.9-.8 1.4l126.9-29.3 16.1-25.8c3.5-5.4 1.8-12.5-3.6-15.9z" fill="#5eb206"/><path d="m272 173-48.8-48.8c-4.5-4.5-11.9-4.5-16.4 0l-85.5 85.5c-.4.4-.7.8-1.1 1.2h130.2l21.5-21.5c4.7-4.5 4.7-11.8.1-16.4z" fill="#a1db33"/></g><g><path d="m379.5 332.7h-37.4c-12.2 0-22-9.9-22-22 0-12.2 9.9-22 22-22h37.4c3.3 0 5.9 2.7 5.9 5.9v32.2c0 3.3-2.6 5.9-5.9 5.9z" fill="#e54141"/><circle cx="342" cy="310.7" fill="#ff9522" r="12.4"/></g></g></g></svg>