<svg enable-background="new 0 0 32 32" viewBox="0 0 32 32" xmlns="http://www.w3.org/2000/svg"><g id="Guides"/><g id="_x32_0"/><g id="_x31_9"/><g id="_x31_8"><path d="m25 20c-.1152344 0-.2230225.0261841-.3363037.0338745-.8148193-2.3466186-3.0396118-4.0338745-5.6636963-4.0338745s-4.848877 1.6872559-5.6636963 4.0338745c-.1132812-.0076904-.2210693-.0338745-.3363037-.0338745-2.7614136 0-5 2.2385864-5 5s2.2385864 5 5 5c1.1309204 0 2.1623535-.3895874 3-1.022644.8376465.6330566 1.8690796 1.022644 3 1.022644s2.1623535-.3895874 3-1.022644c.8376465.6330566 1.8690796 1.022644 3 1.022644 2.7614136 0 5-2.2385864 5-5s-2.2385864-5-5-5zm-9.1795044 7.1164551c.2119141.1767578.2402344.4921875.0634766.7041016-.0986328.1181641-.2412109.1796875-.3837891.1796875-.1132813 0-.2265625-.0380859-.3203125-.1162109l-3-2.5c-.1142578-.0947266-.1796875-.2353516-.1796875-.3837891s.0654297-.2890625.1796875-.3837891l3-2.5c.2119141-.1757813.5273438-.1474609.7041016.0634766.1767578.2119141.1484375.5273438-.0634766.7041016l-2.5390625 2.1162109zm5.1082153-4.359375-3 5c-.09375.15625-.2592773.2431641-.4291992.2431641-.0874023 0-.1762695-.0224609-.2568359-.0712891-.2368164-.1416016-.3134766-.4492188-.1713867-.6855469l3-5c.1435547-.2373047.4511719-.3144531.6855469-.171875.2373046.1416016.3144531.4492188.1718749.6855469zm4.8916016 2.6269531-3 2.5c-.09375.078125-.2070313.1162109-.3203125.1162109-.1425781 0-.2851563-.0615234-.3837891-.1796875-.1767578-.2119141-.1484375-.5273438.0634766-.7041016l2.5390625-2.1162109-2.5390625-2.1162109c-.2119141-.1767578-.2402344-.4921875-.0634766-.7041016.1767578-.2109375.4921875-.2392578.7041016-.0634766l3 2.5c.1142578.0947266.1796875.2353516.1796875.3837891s-.0654297.2890625-.1796875.3837891z"/><circle cx="25" cy="5" r="3"/><path d="m26 8h-1-1c-2.2060547 0-4 1.7939453-4 4v1c0 .5527344.4472656 1 1 1h8c.5527344 0 1-.4472656 1-1v-1c0-2.2060547-1.7939453-4-4-4z"/><path d="m17.6856689 8.8742676-1.9318237-.5665894c-.1216431-.4141846-.2837524-.810791-.4870605-1.1824951l.9638062-1.7637939c.0805664-.1879272.0385742-.4059448-.1060181-.5505371l-.9354858-.9354858c-.1445313-.1445313-.3625488-.1865234-.5504761-.1060181l-1.7637939.9638062c-.3717041-.2033081-.7683105-.3653564-1.1824951-.4869995l-.5665895-1.9318849c-.0759277-.1898193-.2598266-.31427-.4642334-.31427h-1.322998c-.2044068 0-.3883057.1244507-.4642334.31427l-.5665894 1.9318848c-.4141846.1216431-.810791.2836914-1.1824951.4869995l-1.7637939-.9638062c-.1879273-.0805053-.4059449-.0385131-.5504761.1060181l-.9354859.9354859c-.1445922.1445922-.1865844.3626098-.106018.5505371l.9638062 1.7637939c-.2033082.3717041-.3654175.7683106-.4870606 1.1824951l-1.9318237.5665894c-.1898804.0759277-.3143311.2597656-.3143311.4642334v1.322937c0 .2044678.1244507.3883667.3143311.4642944l1.9318237.5665894c.1216431.4141846.2837524.810791.4870605 1.1824951l-.9638062 1.7637939c-.0805664.1879272-.0385742.4059448.1060181.5504761l.9354858.9354858c.1445313.1445923.3625488.1865845.5504761.1060181l1.7637939-.9638062c.3717041.2033081.7683105.3654175 1.1824951.4870605l.5665894 1.9318237c.0759278.1898195.2598267.3143312.4642335.3143312h1.322998c.2044067 0 .3883057-.1245117.4642334-.3143311l.5665894-1.9318237c.4141846-.1216431.810791-.2837524 1.1824951-.4870605l1.7637939.9638062c.1879272.0805664.4059448.0385742.5504761-.1060181l.9354858-.9354858c.1445923-.1445313.1865845-.3625488.1060181-.5504761l-.9638062-1.7637939c.2033081-.3717041.3654175-.7683105.4870605-1.1824951l1.9318237-.5665894c.1898805-.0759278.3143312-.2598267.3143312-.4642945v-1.322937c0-.2044678-.1244507-.3883057-.3143311-.4642334zm-7.6856689 4.1257324c-1.6568604 0-3-1.3431396-3-3s1.3431396-3 3-3 3 1.3431396 3 3-1.3431396 3-3 3z"/><circle cx="10" cy="10" r="2"/></g><g id="_x31_7"/><g id="_x31_6"/><g id="_x31_5"/><g id="_x31_4"/><g id="_x31_3"/><g id="_x31_2"/><g id="_x31_1"/><g id="_x31_0"/><g id="_x30_9"/><g id="_x30_8"/><g id="_x30_7"/><g id="_x30_6"/><g id="_x30_5"/><g id="_x30_4"/><g id="_x30_3"/><g id="_x30_2"/><g id="_x30_1"/></svg>