<svg id="Layer_1" enable-background="new 0 0 512 512" viewBox="0 0 512 512" xmlns="http://www.w3.org/2000/svg"><path d="m472.353 269.481c.169 7.133-2.314 14.139-7.325 20.019-8.194 9.67-22.694 13.141-34.487 8.258-3.174-1.316-6.836-.287-8.853 2.495l-34.72 47.777-.148.202-26.898 37.013c-1.571 2.155-4.012 3.524-6.9 3.864-3.45.414-7.09-.679-9.723-2.919-2.654-2.25-4.32-5.668-4.469-9.128-.128-2.898.839-5.53 2.717-7.42l73.868-74.685c2.41-2.441 2.834-6.22 1.029-9.139-6.9-11.156-5.817-25.358 2.686-35.357 4.798-5.636 11.4-9.192 18.459-10.275l-15.222 17.896c-1.433 1.677-2.038 3.917-1.656 6.093l3.428 19.584c.616 3.524 3.651 6.114 7.229 6.157l19.892.233c2.229 0 4.32-.934 5.753-2.622zm39.147 36.44c0 67.403-54.857 122.249-122.281 122.249-67.413 0-122.249-54.846-122.249-122.249 0-67.414 54.835-122.249 122.249-122.249 67.424 0 122.281 54.835 122.281 122.249zm-35.145-6.794c11.687-13.714 14.118-32.332 6.348-48.594-1.094-2.261-3.249-3.832-5.743-4.161-2.495-.329-4.989.637-6.624 2.548l-16.442 19.308-5.955 7.016-10.222-.117-1.762-10.084 22.375-26.314c1.635-1.921 2.187-4.532 1.465-6.942-.722-2.42-2.622-4.299-5.042-5.01-17.037-4.968-35.464.552-46.949 14.054-11.389 13.396-13.852 31.855-6.793 47.543l-6.931 7.006-18.523-21.781 1.444-1.221c1.496-1.284 2.431-3.099 2.59-5.074.159-1.964-.467-3.906-1.751-5.413l-5.626-6.602c-2.516-3.811-1.401-4.734.234-6.082l20.454-16.761c2.207-1.805 3.184-4.724 2.515-7.494-.669-2.771-2.855-4.914-5.647-5.52-17.238-3.758-33.606-.573-48.636 9.447-.244.159-.467.329-.69.52l-32.406 27.556c-2.654 2.261-3.333 5.976-1.847 8.97l-3.556-.701c-2.229-.435-4.522.17-6.242 1.635l-13.937 11.856c-3.121 2.654-3.503 7.345-.849 10.477l26.908 31.653c1.273 1.497 3.099 2.431 5.063 2.59.202.021.392.021.594.021 1.762 0 3.472-.616 4.819-1.773l13.927-11.846c1.72-1.465 2.686-3.619 2.622-5.881l-.106-3.63c1.083.764 2.356 1.242 3.715 1.359 1.974.159 3.906-.467 5.414-1.752l.032-.021 20.805 24.468-34.413 34.795c-4.819 4.862-7.314 11.432-7.006 18.512.318 7.642 3.853 14.871 9.702 19.828 4.989 4.236 11.357 6.549 17.854 6.549 1.083 0 2.165-.064 3.237-.191 7.038-.839 13.13-4.341 17.164-9.882l21.378-29.424 28.171 33.107c3.11 3.683 7.494 5.934 12.334 6.326.509.042 1.009.064 1.518.064 4.299 0 8.396-1.497 11.686-4.299l10.572-9.012c3.684-3.11 5.933-7.494 6.326-12.334.393-4.819-1.114-9.5-4.235-13.194l-36.037-42.395 6.857-9.437c16.529 4.342 34.701-1.114 45.847-14.266zm-37.969-121.208c5.105 1.964 10.062 4.225 14.861 6.772v-64.717c0-4.108-3.333-7.441-7.43-7.441h-27.928v14.871h20.497zm-36.079 174.282 30.517 35.856c.743.892 1.698 1.093 2.208 1.125.499.043 1.486.011 2.356-.732l10.583-9.022c.891-.754 1.093-1.709 1.136-2.208.042-.509 0-1.497-.754-2.388l-33.691-39.624zm-41.673-87.593c-.17-.191-.33-.403-.478-.615-6.539-9.553-5.477-19.372 2.834-26.261l5.265-4.31c-6.369 1.115-12.504 3.63-18.523 7.589l-26.409 22.461 1.061 1.263c2.654 3.121 2.272 7.802-.849 10.456l-6.103 5.212c-1.72 1.465-4.023 2.07-6.241 1.635l-7.898-1.539-5.541 4.723 17.27 20.327 5.551-4.723-.223-8.057c-.075-2.25.891-4.405 2.601-5.87l6.114-5.201c1.497-1.284 3.46-1.911 5.414-1.751 1.974.159 3.8 1.093 5.074 2.601l1.051 1.242.063-.053 21.039-17.864zm42.394-173.581h-352.278v-54.315h352.279v54.315zm-312.441-27.173c0-4.108-3.322-7.43-7.43-7.43h-.308c-4.098 0-7.43 3.322-7.43 7.43s3.333 7.43 7.43 7.43h.308c4.107 0 7.43-3.322 7.43-7.43zm21.208 0c0-4.108-3.323-7.43-7.43-7.43h-.298c-4.107 0-7.43 3.322-7.43 7.43s3.323 7.43 7.43 7.43h.298c4.107 0 7.43-3.322 7.43-7.43zm21.187 0c0-4.108-3.333-7.43-7.43-7.43h-.308c-4.097 0-7.43 3.322-7.43 7.43s3.333 7.43 7.43 7.43h.308c4.096 0 7.43-3.322 7.43-7.43zm245.347 0c0-4.108-3.333-7.43-7.43-7.43h-186.16c-4.107 0-7.441 3.322-7.441 7.43s3.333 7.43 7.441 7.43h186.16c4.097 0 7.43-3.322 7.43-7.43zm-126.198 245.103h-201.381v-203.069h352.279v63.603c-4.543-.457-9.149-.69-13.809-.69-75.608 0-137.12 61.512-137.12 137.12-.001 1.019.01 2.027.031 3.036zm-154.464-126.283 25.708-25.709c2.898-2.898 2.898-7.611 0-10.508-2.908-2.898-7.611-2.898-10.508 0l-30.963 30.963c-1.401 1.391-2.176 3.28-2.176 5.254s.775 3.864 2.176 5.254l30.963 30.931c1.454 1.454 3.354 2.176 5.254 2.176s3.8-.722 5.254-2.176c2.898-2.908 2.898-7.611-.01-10.509zm77.242-40.548c-3.758-1.667-8.141.021-9.808 3.768l-30.028 67.488c-1.677 3.747.01 8.141 3.768 9.808.976.446 2.006.648 3.014.648 2.845 0 5.562-1.645 6.793-4.416l30.029-67.488c1.667-3.747-.021-8.141-3.768-9.808zm56.937 35.294-30.931-30.963c-2.898-2.898-7.611-2.898-10.508 0-2.909 2.898-2.909 7.6-.011 10.508l25.688 25.709-25.688 25.677c-2.898 2.898-2.898 7.611 0 10.509 1.454 1.454 3.354 2.176 5.265 2.176 1.9 0 3.8-.722 5.254-2.176l30.931-30.931c2.898-2.899 2.898-7.601 0-10.509zm92.103 283.007h-35.92v-47.755h15.243c-5.626-4.532-10.891-9.5-15.731-14.861-5.721-6.327-10.869-13.194-15.349-20.518-2.929-4.766-5.573-9.734-7.897-14.871h-248.934v-235.018h20.518v-14.871h-27.949c-4.108 0-7.43 3.333-7.43 7.441v285.269c0 4.108 3.322 7.43 7.43 7.43h157.819v47.755h-35.931c-4.098 0-7.43 3.323-7.43 7.43 0 4.108 3.333 7.43 7.43 7.43h194.131c4.108 0 7.441-3.322 7.441-7.43s-3.333-7.431-7.441-7.431zm59.644-154.432-19.361-22.769-8.311 7.059 19.966 23.49z"/></svg>