<svg id="Layer_1" viewBox="0 0 512 512" xmlns="http://www.w3.org/2000/svg" data-name="Layer 1"><path d="m249.86 282.28-8.33 6.15-15.85-15.87c-10.71 6.35-22.28 11.14-34.33 14.23v22.45l-10.23 1.5c-7.57 1.13-15.25 1.7-22.9 1.7s-15.34-.57-22.9-1.7l-10.23-1.5v-22.45c-12.08-3.09-23.61-7.91-34.33-14.23l-5.95 5.98v179.38c0 20.95 17.12 38.1 38.1 38.1h335c20.95 0 38.1-17.15 38.1-38.1v-195.96h-223.65c-6.8 7.48-14.34 14.29-22.48 20.32zm-39.94 79.26-27.27 15.73 26.82 15.48c.17.08.31.17.48.25l30.36 17.55c4.31 2.47 5.75 7.97 3.29 12.25-2.49 4.31-7.99 5.75-12.27 3.29l-30.36-17.55c-.17-.08-.31-.17-.45-.28l-29.88-17.23c-2.52-1.45-4.51-3.43-5.84-5.78-.14-.23-.28-.48-.4-.74-1.13-2.21-1.76-4.68-1.76-7.23 0-2.83.77-5.56 2.15-7.97 1.33-2.35 3.32-4.34 5.84-5.78l30.33-17.52 30.36-17.52c4.28-2.49 9.78-1.05 12.27 3.26 2.47 4.28 1.02 9.78-3.29 12.27l-30.36 17.52v-.03l-.03.03zm160.95 0-30.36-17.52c-4.31-2.47-5.78-7.97-3.32-12.25s7.94-5.75 12.25-3.29l30.36 17.52 30.36 17.52c2.21 1.28 4.02 3 5.39 5.05.14.26.31.48.45.74 1.39 2.41 2.13 5.13 2.13 7.97s-.74 5.56-2.13 7.97c-1.39 2.38-3.37 4.37-5.84 5.78l-30.36 17.52-30.36 17.55c-4.31 2.47-9.78.99-12.25-3.32-2.47-4.28-.99-9.75 3.32-12.22l30.36-17.55 27.24-15.73-27.24-15.73zm-57.57-69.76c4.79 1.28 7.65 6.21 6.35 11l-41.16 153.64c-1.28 4.79-6.21 7.65-11 6.38-4.79-1.3-7.65-6.21-6.38-11.03l41.19-153.64c1.28-4.79 6.21-7.65 11-6.35zm58.65-87.08c1.42 1.42 2.3 3.37 2.3 5.53s-.88 4.08-2.3 5.5-3.37 2.3-5.5 2.3h-26.42c-2.13 0-4.08-.88-5.5-2.3s-2.3-3.37-2.3-5.5.88-4.11 2.3-5.53 3.37-2.3 5.5-2.3h26.42c2.13 0 4.08.88 5.5 2.3zm85.95-40.22h-145.59c-.23 5.58-.74 11.14-1.56 16.67l-1.53 10.23h-22.45c-3.09 12.05-7.88 23.61-14.23 34.3l15.87 15.87-6.15 8.31-.06.11h213.79v-47.4c0-20.98-17.15-38.1-38.1-38.1zm-77.47 59.73c-3.57 3.57-8.53 5.81-13.98 5.81h-26.42c-5.44 0-10.4-2.24-13.97-5.81-3.6-3.6-5.81-8.53-5.81-13.98s2.21-10.4 5.81-14 8.53-5.81 13.97-5.81h26.42c5.44 0 10.4 2.24 13.98 5.81 3.6 3.6 5.81 8.53 5.81 14s-2.21 10.38-5.81 13.98zm82.88 0c-3.57 3.57-8.53 5.81-13.97 5.81h-26.39c-5.47 0-10.4-2.24-14-5.81-3.57-3.6-5.81-8.53-5.81-13.98s2.24-10.4 5.81-14c3.6-3.57 8.53-5.81 14-5.81h26.39c5.44 0 10.4 2.24 13.97 5.81s5.84 8.53 5.84 14-2.24 10.38-5.84 13.98zm-8.48-19.5c1.42 1.42 2.3 3.37 2.3 5.53s-.88 4.08-2.3 5.5-3.37 2.3-5.5 2.3h-26.39c-2.15 0-4.11-.88-5.53-2.3-1.39-1.42-2.27-3.37-2.27-5.5s.88-4.11 2.27-5.53c1.42-1.42 3.37-2.3 5.53-2.3h26.39c2.13 0 4.08.88 5.5 2.3zm-317.76 72.43v21.77c6.89 1.02 13.95 1.56 21.15 1.56s14.26-.54 21.15-1.56v-21.77c17.6-3.12 33.87-10.03 47.96-19.87l15.39 15.39c11.4-8.45 21.49-18.54 29.91-29.91l-15.39-15.39c9.84-14.09 16.75-30.39 19.87-47.96h21.77c1.02-6.92 1.56-13.97 1.56-21.15s-.54-14.26-1.56-21.15h-21.77c-3.12-17.6-10.03-33.87-19.87-47.96l15.39-15.39c-8.42-11.4-18.51-21.49-29.91-29.91l-15.39 15.39c-14.09-9.84-30.36-16.78-47.96-19.87v-21.77c-6.89-1.05-13.98-1.59-21.15-1.59s-14.26.54-21.15 1.59v21.77c-17.6 3.09-33.87 10.01-47.96 19.87l-15.39-15.39c-11.4 8.42-21.49 18.51-29.91 29.91l15.39 15.39c-9.84 14.09-16.75 30.36-19.87 47.96h-21.77c-1.02 6.89-1.56 13.95-1.56 21.15s.54 14.23 1.56 21.15h21.77c3.12 17.57 10.03 33.87 19.87 47.96l-15.39 15.39c8.42 11.37 18.51 21.46 29.91 29.91l15.39-15.39c14.09 9.84 30.36 16.75 47.96 19.87zm21.15-187.74c38.01 0 68.85 30.81 68.85 68.85s-30.84 68.83-68.85 68.83-68.85-30.81-68.85-68.83 30.84-68.85 68.85-68.85z" fill-rule="evenodd"/></svg>