<svg height="512" viewBox="0 0 58 58" width="512" xmlns="http://www.w3.org/2000/svg"><g id="Page-1" fill="none" fill-rule="evenodd"><g id="023---Secure-Mobile-Payment" fill-rule="nonzero"><path id="Shape" d="m27 0h4c1.6568542 0 3 1.34314575 3 3v48.75c0 1.6568542-1.3431458 3-3 3h-28c-1.65685425 0-3-1.3431458-3-3v-48.75c0-1.65685425 1.34314575-3 3-3z" fill="#2fa8cc"/><path id="Shape" d="m34 3v2s-33.48 0-33.99 46.9c-.00830214-.0495443-.01165198-.0997921-.01-.15v-48.75c0-1.65685425 1.34314575-3 3-3h28c1.6568542 0 3 1.34314575 3 3z" fill="#67b9cc"/><path id="Shape" d="m34 50v5c0 1.6568542-1.3431458 3-3 3h-28c-1.65685425 0-3-1.3431458-3-3v-5c0 1.6568542 1.34314575 3 3 3h28c1.6568542 0 3-1.3431458 3-3z" fill="#464f5d"/><path id="Shape" d="m27 0-2.86 3.05c-.5663757.60708315-1.3597411.95123705-2.19.95h-9.9c-.8302589.00123705-1.6236243-.34291685-2.19-.95l-2.86-3.05z" fill="#464f5d"/><path id="Shape" d="m56.92 13.27c.6930131.7402166 1.0790391 1.7160045 1.08 2.73v24c0 2.209139-1.790861 4-4 4h-42c-2.209139 0-4-1.790861-4-4v-24c0-2.209139 1.790861-4 4-4h28.52z" fill="#f29c1f"/><rect id="Rectangle-path" fill="#f3d55b" height="6" rx="2" width="8" x="13" y="17"/><path id="Shape" d="m19 24h-4c-1.6568542 0-3-1.3431458-3-3v-2c0-1.6568542 1.3431458-3 3-3h4c1.6568542 0 3 1.3431458 3 3v2c0 1.6568542-1.3431458 3-3 3zm-4-6c-.5522847 0-1 .4477153-1 1v2c0 .5522847.4477153 1 1 1h4c.5522847 0 1-.4477153 1-1v-2c0-.5522847-.4477153-1-1-1z" fill="#e57e25"/><g fill="#ecf0f1"><path id="Shape" d="m17 29h-4c-.5522847 0-1-.4477153-1-1s.4477153-1 1-1h4c.5522847 0 1 .4477153 1 1s-.4477153 1-1 1z"/><path id="Shape" d="m25 29h-4c-.5522847 0-1-.4477153-1-1s.4477153-1 1-1h4c.5522847 0 1 .4477153 1 1s-.4477153 1-1 1z"/><path id="Shape" d="m33 29h-4c-.5522847 0-1-.4477153-1-1s.4477153-1 1-1h4c.5522847 0 1 .4477153 1 1s-.4477153 1-1 1z"/><path id="Shape" d="m41 29h-4c-.5522847 0-1-.4477153-1-1s.4477153-1 1-1h4c.5522847 0 1 .4477153 1 1s-.4477153 1-1 1z"/><path id="Shape" d="m49 29h-4c-.5522847 0-1-.4477153-1-1s.4477153-1 1-1h4c.5522847 0 1 .4477153 1 1s-.4477153 1-1 1z"/><path id="Shape" d="m20 35h-3c-.5522847 0-1-.4477153-1-1s.4477153-1 1-1h3c.5522847 0 1 .4477153 1 1s-.4477153 1-1 1z"/><path id="Shape" d="m20 39h-7c-.5522847 0-1-.4477153-1-1s.4477153-1 1-1h7c.5522847 0 1 .4477153 1 1s-.4477153 1-1 1z"/></g><path id="Shape" d="m58 9c-.0072287 4.3775355-3.163162 8.1149804-7.4776232 8.8554486-4.3144613.7404681-8.5359676-1.7308258-10.0023768-5.8554486-.346327-.9621902-.5222936-1.9773822-.52-3 0-4.97056275 4.0294373-9 9-9s9 4.02943725 9 9z" fill="#4fba6f"/><path id="Shape" d="m48 14c-.2651948-.0000566-.5195073-.1054506-.707-.293l-2-2c-.3789722-.3923789-.3735524-1.0160848.0121814-1.4018186.3857338-.38573377 1.0094397-.39115361 1.4018186-.0121814l1.019 1.019 3.379-6.759c.2468713-.49429485.8477051-.69487128 1.342-.448s.6948713.84770515.448 1.342l-4 8c-.1438736.2877506-.4174008.4887093-.735.54-.0528763.0087973-.1063971.0131459-.16.013z" fill="#fff"/><path id="Shape" d="m54 41h-5c-.5522847 0-1-.4477153-1-1s.4477153-1 1-1h4v-3c0-.5522847.4477153-1 1-1s1 .4477153 1 1v4c0 .5522847-.4477153 1-1 1z" fill="#e57e25"/></g></g></svg>