<svg id="Layer_1" viewBox="0 0 512 512" xmlns="http://www.w3.org/2000/svg" data-name="Layer 1"><path d="m149.616 0h181.119a36.554 36.554 0 0 1 36.428 36.428v357.08a36.535 36.535 0 0 1 -36.428 36.428h-181.119a36.536 36.536 0 0 1 -36.428-36.428v-357.08a36.554 36.554 0 0 1 36.428-36.428z" fill="#69a7ff" fill-rule="evenodd"/><path d="m149.616 0h181.119a36.554 36.554 0 0 1 36.428 36.428v11.977h-253.975v-11.977a36.554 36.554 0 0 1 36.428-36.428z" fill="#3f5163" fill-rule="evenodd"/><path d="m149.616 429.936h181.119a36.535 36.535 0 0 0 36.428-36.428v-11.949h-253.975v11.949a36.536 36.536 0 0 0 36.428 36.428z" fill="#3f5163" fill-rule="evenodd"/><path d="m222.384 109.4h218.451a12.338 12.338 0 0 1 12.3 12.3v146.117a12.338 12.338 0 0 1 -12.3 12.3h-218.451a12.338 12.338 0 0 1 -12.3-12.3v-146.117a12.338 12.338 0 0 1 12.3-12.3z" fill="#fb4455" fill-rule="evenodd"/><path d="m210.086 141.835h243.046v29.579h-243.046z" fill="#3f5163"/><path d="m237.684 200.411h73.701v53.097h-73.701z" fill="#ffab02"/><path d="m342.625 210.116a7.2 7.2 0 0 1 0-14.4h82.91a7.2 7.2 0 0 1 0 14.4zm0 48.084a7.2 7.2 0 1 1 0-14.4h82.91a7.2 7.2 0 0 1 0 14.4zm0-24.042a7.2 7.2 0 1 1 0-14.4h82.91a7.2 7.2 0 0 1 0 14.4z" fill="#d5e3f2"/><path d="m443.6 183.567a55.822 55.822 0 1 0 -55.836-55.807 55.931 55.931 0 0 0 55.836 55.807z" fill="#45bf64" fill-rule="evenodd"/><path d="m465.9 103.251a7.192 7.192 0 0 1 10.171 10.17l-38.821 38.847a7.247 7.247 0 0 1 -10.2 0l-15.911-15.941a7.2 7.2 0 0 1 10.2-10.17l10.811 10.843z" fill="#d5e3f2"/><path d="m221.452 412.946a7.2 7.2 0 0 1 0-14.4h37.418a7.2 7.2 0 1 1 0 14.4z" fill="#d5e3f2"/><path d="m221.452 31.386a7.184 7.184 0 0 1 0-14.367h37.418a7.184 7.184 0 1 1 0 14.367z" fill="#d5e3f2"/><path d="m135.628 485.684c14.921-57.526 40.391-104.125 70.116-149.091 19.613-31.882-24.421-61.986-46.86-29.988l-45.142 66.824c0-64.317-.146-128.634-1.107-192.922-51.262 49.017-92.09 77.781-78.535 221.714 1.137 12.211 1.545 62.569 2.536 85.008z" fill="#faba7b" fill-rule="evenodd"/><path d="m62.555 410.425h47.675v144.399h-47.675z" fill="#fb4455" transform="matrix(.078 -.997 .997 .078 -401.486 531.257)"/><g fill-rule="evenodd"><path d="m27.306 485.947 2.477-31.649-13.522-1.049-3.701 47.531 143.963 11.22 1.224-15.912-114.908-8.946-6.207-.496z" fill="#e82e41"/><path d="m48.784 402.8c-12.24-130.062 19.9-166.082 64.055-207.988-.059-4.779-.146-9.559-.2-14.309-51.266 49.021-92.094 77.785-78.539 221.718.729 7.752 1.166 30.92 1.632 52.544l14.684 1.135c-.466-21.769-.9-45.287-1.632-53.1z" fill="#f5ad65"/><path d="m158.884 306.605-45.142 66.824v22.323l59.829-88.564c5.1-7.256 11.278-11.336 17.6-12.88-10.52-3.469-23.2-.7-32.289 12.3z" fill="#f5ad65"/><path d="m132.626 345.481v-297.076h-19.438v178.671c.467 48.785.554 97.569.554 146.353z" fill="#5f96e6"/><path d="m113.188 48.405h19.438v-11.977a36.535 36.535 0 0 1 36.428-36.428h-19.438a36.554 36.554 0 0 0 -36.428 36.428z" fill="#2c3947"/><path d="m220.9 141.835v-30.949a11.146 11.146 0 0 1 .088-1.4 12.325 12.325 0 0 0 -10.9 12.211v20.137z" fill="#e82e41"/></g><path d="m210.086 141.835h10.812v29.579h-10.812z" fill="#2c3947"/><path d="m220.9 171.415h-10.814v96.4a12.338 12.338 0 0 0 12.3 12.3h218.449a12.323 12.323 0 0 0 12.21-10.9 11.314 11.314 0 0 1 -1.4.088h-218.445a12.339 12.339 0 0 1 -12.3-12.3z" fill="#e82e41" fill-rule="evenodd"/><path d="m398.724 127.76a55.785 55.785 0 0 1 50.358-55.575c-1.807-.175-3.614-.262-5.479-.262a55.822 55.822 0 0 0 0 111.644c1.865 0 3.672-.087 5.479-.262a55.813 55.813 0 0 1 -48.551-41.47 55.933 55.933 0 0 1 -1.807-14.075z" fill="#1ca63e" fill-rule="evenodd"/></svg>