<svg id="Layer_1" height="512" viewBox="0 0 512 512" width="512" xmlns="http://www.w3.org/2000/svg" data-name="Layer 1"><path d="m256 0c141.383 0 256 114.587 256 256.035 0 141.376-114.617 255.965-256 255.965s-256-114.589-256-255.965c0-141.448 114.623-256.035 256-256.035zm-104.828 149.752h18.617a139.4 139.4 0 0 1 5.138-16.72h-32.115a8.394 8.394 0 0 0 -8.356 8.383v137.685s5.571-7.121 16.716-21.317zm209.663 126.415h16.707v-134.752a8.389 8.389 0 0 0 -8.347-8.383h-32.128a58.872 58.872 0 0 1 5.164 16.72h18.6zm-217.955 69.133a22.439 22.439 0 1 0 22.448-22.443 22.449 22.449 0 0 0 -22.448 22.443zm-16.7 0a39.143 39.143 0 1 0 39.15-39.163 39.167 39.167 0 0 0 -39.15 39.163zm-31.68 7.527 11.217 2.118a8.3 8.3 0 0 1 6.512 5.859 54.134 54.134 0 0 0 4.579 11.041 8.327 8.327 0 0 1 -.442 8.743l-6.48 9.419 10.714 10.727 9.388-6.49a8.324 8.324 0 0 1 8.77-.451 54.609 54.609 0 0 0 11.051 4.6 8.258 8.258 0 0 1 5.872 6.49l2.064 11.222h15.155l2.06-11.222a8.282 8.282 0 0 1 5.876-6.49 54.89 54.89 0 0 0 11.056-4.6 8.316 8.316 0 0 1 8.765.451l9.388 6.49 10.708-10.727-6.477-9.419a8.31 8.31 0 0 1 -.441-8.743 54.646 54.646 0 0 0 4.579-11.041 8.3 8.3 0 0 1 6.512-5.859l11.217-2.118v-15.1l-11.217-2.073a8.283 8.283 0 0 1 -6.512-5.9 55.33 55.33 0 0 0 -4.579-11 8.4 8.4 0 0 1 .441-8.789l6.477-9.374-10.708-10.771-9.388 6.49a8.222 8.222 0 0 1 -8.765.451 60.63 60.63 0 0 0 -11.056-4.6 8.283 8.283 0 0 1 -5.876-6.49l-2.06-11.222h-15.157l-2.064 11.222a8.26 8.26 0 0 1 -5.872 6.49 60.554 60.554 0 0 0 -11.051 4.6 8.23 8.23 0 0 1 -8.77-.451l-9.388-6.49-10.712 10.771 6.48 9.374a8.413 8.413 0 0 1 .442 8.789 55.271 55.271 0 0 0 -4.579 11 8.284 8.284 0 0 1 -6.512 5.9l-11.217 2.075v15.1zm173.131-201.813a11.634 11.634 0 1 0 -11.631 11.628 11.657 11.657 0 0 0 11.632-11.628zm-11.631 87.296a70.817 70.817 0 0 0 35.265-9.329 8.809 8.809 0 0 1 .068-.9 35.68 35.68 0 1 0 -71.013-4.958 36.221 36.221 0 0 0 .469 5.814.675.675 0 0 1 .009.09 71.069 71.069 0 0 0 35.202 9.283zm-71.226-71.21a71.2 71.2 0 0 0 19.352 48.809 52.442 52.442 0 0 1 34.8-42.274 28.336 28.336 0 1 1 34.157 0 52.464 52.464 0 0 1 34.8 42.184 71.2 71.2 0 1 0 -123.1-48.719zm230.462 125.787h-86.061a2.3 2.3 0 0 0 -2.267 2.253v118.708a2.3 2.3 0 0 0 2.267 2.254h86.061a2.289 2.289 0 0 0 2.263-2.254v-118.708a2.289 2.289 0 0 0 -2.263-2.253zm-68.507 111.452h50.953a8.36 8.36 0 0 0 0-16.72h-50.953a8.36 8.36 0 0 0 0 16.72zm0-37.361h50.953a8.36 8.36 0 0 0 0-16.72h-50.953a8.36 8.36 0 0 0 0 16.72zm-8.356-45.744a8.352 8.352 0 0 0 8.356 8.338h50.953a8.36 8.36 0 0 0 0-16.72h-50.953a8.361 8.361 0 0 0 -8.356 8.382z" fill-rule="evenodd"/></svg>