<svg id="Layer_1" enable-background="new 0 0 48 48" viewBox="0 0 48 48" xmlns="http://www.w3.org/2000/svg"><g><path d="m19.57 18.29c0-2.44 1.99-4.43 4.43-4.43s4.43 1.99 4.43 4.43v1.68h2.09v-1.68c0-3.59-2.92-6.52-6.52-6.52s-6.52 2.92-6.52 6.52v1.68h2.09z"/><g><path d="m44.33 7.46c-6.43-.21-20.33-6.96-20.33-6.96s-13.9 6.75-20.33 6.96v24.8c0 .81.23 1.61.67 2.29 1.8 2.81 7.45 9.98 19.66 12.96 12.23-2.97 17.87-10.16 19.67-12.96.44-.68.67-1.47.67-2.29zm-5.22 24.51c-1.6 2.41-5.97 7.57-15.11 10.14-9.14-2.57-13.51-7.73-15.11-10.14v-20.1c5.39-1.33 11.63-4.01 15.11-5.6 3.48 1.6 9.73 4.27 15.11 5.6z"/></g><path d="m30.52 21.02h-13.04c-1.39 0-2.53 1.13-2.53 2.53v7.72c0 1.39 1.13 2.53 2.53 2.53h13.04c1.39 0 2.53-1.13 2.53-2.53v-7.72c0-1.4-1.14-2.53-2.53-2.53zm-5.48 8.71h-2.09v-3.16h2.09z"/></g></svg>