<?xml version="1.0" encoding="utf-8"?>
<!-- Generator: Adobe Adobe Illustrator 24.2.0, SVG Export Plug-In . SVG Version: 6.00 Build 0)  -->
<svg version="1.1" id="Layer_1" xmlns="http://www.w3.org/2000/svg" xmlns:xlink="http://www.w3.org/1999/xlink" x="0px" y="0px"
	 width="1080px" height="1080px" viewBox="0 0 1080 1080" style="enable-background:new 0 0 1080 1080;" xml:space="preserve">
<style type="text/css">
	.st0{fill:#0B1E3F;}
	.st1{fill:url(#SVGID_1_);}
	.st2{fill:url(#SVGID_2_);}
	.st3{fill:url(#SVGID_3_);}
	.st4{fill:url(#SVGID_4_);}
	.st5{fill:#F54C46;}
	.st6{font-family:'HelveticaNeue-Thin';}
	.st7{font-size:205.972px;}
	.st8{letter-spacing:3;}
</style>
<g>
	<path class="st0" d="M372.07,676.72c-18.28-18.8-35.44-38.32-52.9-57.57c-15-16.54-29.61-33.41-43.96-50.51
		c-9.71-11.57-19.43-23.12-29.22-34.61c-12.83-15.05-25.04-30.6-37.25-46.15c-8.72-11.11-17.09-22.5-25.62-33.76
		c-5.16-6.81-10.31-13.62-15.53-20.39c-0.91-1.18-1.3-2.38-1.3-3.85c0.02-28.34,0.01-56.68,0.02-85.03c0-0.52,0.09-1.05,0.18-2.13
		c2.94,1.9,4.51,4.62,6.32,6.9c8.89,11.21,18.45,21.84,27.85,32.61c14.04,16.08,27.96,32.26,41.92,48.42
		c12.71,14.71,25.42,29.43,38.09,44.17c11.42,13.28,22.79,26.6,34.2,39.89c13.84,16.12,27.65,32.25,41.56,48.32
		c13.35,15.42,27,30.6,40.16,46.18c17.36,20.56,35.34,40.57,52.74,61.08c2.84,3.34,5.78,6.6,8.68,9.9c0.72,0.82,1.49,1.67,1.09,2.85
		c-0.48,1.39-1.78,0.98-2.76,0.98c-25.23,0.03-50.46,0.01-75.69,0.05c-1.79,0-3-0.57-4.06-2.03
		C375.26,680.23,373.69,678.6,372.07,676.72z"/>
	<linearGradient id="SVGID_1_" gradientUnits="userSpaceOnUse" x1="65.7911" y1="773.7999" x2="297.0267" y2="409.848">
		<stop  offset="0" style="stop-color:#FE4E46"/>
		<stop  offset="0.2746" style="stop-color:#FE4E46"/>
		<stop  offset="0.3198" style="stop-color:#FE4E46"/>
		<stop  offset="0.3537" style="stop-color:#E84A45"/>
		<stop  offset="0.4534" style="stop-color:#AF3E44"/>
		<stop  offset="0.5532" style="stop-color:#7D3442"/>
		<stop  offset="0.6507" style="stop-color:#542C41"/>
		<stop  offset="0.7455" style="stop-color:#342640"/>
		<stop  offset="0.837" style="stop-color:#1D2240"/>
		<stop  offset="0.9235" style="stop-color:#101F3F"/>
		<stop  offset="1" style="stop-color:#0B1E3F"/>
	</linearGradient>
	<path class="st1" d="M232.31,398.93c-16.54-19.01-32.92-37.85-49.26-56.63c1.2-1.7,2.6-1.3,3.81-1.3
		c42.83-0.02,85.67-0.23,128.5,0.11c13.88,0.11,27.31,3.39,39.97,9.42c18.05,8.61,32.15,21.45,42.58,38.54
		c5.46,8.94,9.41,18.5,12.02,28.5c2.98,11.44,3.28,23.19,2.5,35.06c-0.97,14.71-5.39,28.23-12.16,41.09
		c-6.99,13.28-16.83,24.12-28.84,33.09c-5.07,3.79-10.58,6.8-16.14,9.75c-1.79,0.95-3.23,0.99-4.72-0.88
		c-12.53-15.72-25.8-30.82-38.99-45.98c-2.83-3.26-5.55-6.61-8.82-10.52c4.09-0.51,7.37-0.63,10.57-1.46
		c8.51-2.2,14.94-7.2,19.74-14.27c6.56-9.65,7.94-20.46,4.24-31.31c-4.12-12.08-14.94-22.63-29.1-23.25
		c-10.72-0.47-21.46-0.23-32.2-0.26c-10.52-0.03-21.04-0.08-31.56,0.04c-2.75,0.03-4.66-0.85-6.3-3.02
		C236.42,403.34,234.37,401.28,232.31,398.93z"/>
	<linearGradient id="SVGID_2_" gradientUnits="userSpaceOnUse" x1="266.6298" y1="705.7065" x2="221.4308" y2="539.9766">
		<stop  offset="0" style="stop-color:#FE4E46"/>
		<stop  offset="0.178" style="stop-color:#FB4D46"/>
		<stop  offset="0.3123" style="stop-color:#F14C46"/>
		<stop  offset="0.4325" style="stop-color:#E14845"/>
		<stop  offset="0.5443" style="stop-color:#CA4445"/>
		<stop  offset="0.6504" style="stop-color:#AD3E44"/>
		<stop  offset="0.7521" style="stop-color:#883743"/>
		<stop  offset="0.8505" style="stop-color:#5D2E41"/>
		<stop  offset="0.9437" style="stop-color:#2C2540"/>
		<stop  offset="1" style="stop-color:#0B1E3F"/>
	</linearGradient>
	<path class="st2" d="M234.04,617.08c22.98,2.05,45.74,0.56,68.48,0.87c4.03,0.06,6.6,1.17,9.15,4.4
		c15.67,19.86,31.96,39.23,48.37,58.48c1.06,1.25,2.56,2.32,2.64,4.23c-1.15,1.05-2.5,0.69-3.73,0.69
		c-41.56,0.02-83.11,0.14-124.67-0.05c-16.75-0.08-32.65-4.26-47.28-12.44c-14.62-8.18-26.37-19.45-35.4-33.7
		c-5.09-8.04-9.04-16.56-11.73-25.53c-4.7-15.66-5.92-31.65-3.12-47.94c2.14-12.46,6.3-24.11,12.45-35.08
		c6.9-12.29,16.11-22.56,27.51-30.86c5.02-3.66,10.26-6.94,15.83-9.7c2.28-1.13,3.79-1.27,5.69,1.08
		c14.94,18.42,30.42,36.37,46.14,54.12c0.36,0.4,0.67,0.84,0.39,1.84c-3.77,0.61-7.79,0.93-11.67,2.19
		c-8.27,2.7-14.06,8.04-18.77,15.16c-5.39,8.14-5.32,17.14-4.2,26.03c0.87,6.88,4.95,12.6,9.89,17.6
		C223.97,612.45,228.65,615.06,234.04,617.08z"/>
</g>
<text transform="matrix(1 0 0 1 459.2083 508.2668)"><tspan x="0" y="0" class="st5 st6 st7 st8">Swift </tspan><tspan x="0" y="174.9" class="st0 st6 st7 st8">Route</tspan></text>
</svg>
