<svg id="OBJECT" height="512" viewBox="0 0 512 512" width="512" xmlns="http://www.w3.org/2000/svg"><path d="m288.8 191.38a72.59 72.59 0 1 0 31.82 31.82l-48.71 48.71a22.5 22.5 0 0 1 -31.82-31.82z"/><path d="m325.2 155a122.63 122.63 0 1 0 31.8 31.8l-25.33 25.33a87.54 87.54 0 1 1 -31.82-31.82z"/><path d="m465.94 162.73a59.7 59.7 0 0 1 -5.61 4.94 222.16 222.16 0 1 1 -116-116 64 64 0 0 1 5-5.61l19.84-19.83a256.06 256.06 0 0 0 -294.17 410.77 256.1 256.1 0 0 0 410.8-294.13z"/><path d="m256 48.5c-114.42 0-207.5 93.08-207.5 207.5s93.08 207.5 207.5 207.5 207.5-93.08 207.5-207.5a206.34 206.34 0 0 0 -16.25-80.48 62.31 62.31 0 0 1 -41.41 3.48l-32.45-8.55-5.6 5.6a136.81 136.81 0 0 1 25.71 80c0 75.82-61.68 137.5-137.5 137.5s-137.5-61.73-137.5-137.55 61.68-137.5 137.5-137.5a136.81 136.81 0 0 1 80 25.71l5.6-5.6-8.6-32.45a62.66 62.66 0 0 1 3.43-41.43 206.4 206.4 0 0 0 -80.43-16.23z"/><path d="m347.53 102.34 10.73 40.79-107.56 107.57a7.5 7.5 0 1 0 10.6 10.6l107.57-107.56 40.79 10.73a47.63 47.63 0 0 0 45.68-12.35l54.46-54.46a7.5 7.5 0 0 0 -3.39-12.56l-63-16.56-16.51-62.95a7.5 7.5 0 0 0 -12.56-3.39l-54.46 54.46a47.67 47.67 0 0 0 -12.35 45.68z"/></svg>