<?xml version="1.0"?>
<svg xmlns="http://www.w3.org/2000/svg" viewBox="0 0 64 64"><title/><path d="M59,29.27V28.06a27,27,0,0,0-54,0v1.21a6.63,6.63,0,0,0-5,6.41V49.43a6.63,6.63,0,0,0,6.62,6.63H12a2,2,0,0,0,2-2v-23a2,2,0,0,0-2-2H9v-1a23,23,0,1,1,46,0v1H52a2,2,0,0,0-2,2v23a2,2,0,0,0,2,2h.75a4.89,4.89,0,0,1-4.44,2.88H40.37A4.85,4.85,0,0,1,37,57.61a5.83,5.83,0,1,0-4.18,1.16,8.84,8.84,0,0,0,7.51,4.17h7.94A8.89,8.89,0,0,0,57,56.06h.43A6.63,6.63,0,0,0,64,49.43V35.68A6.63,6.63,0,0,0,59,29.27ZM10,33.06v19H6.62A2.63,2.63,0,0,1,4,49.43V35.68a2.63,2.63,0,0,1,2.62-2.62ZM33.5,54.81A1.84,1.84,0,1,1,35.33,53,1.83,1.83,0,0,1,33.5,54.81ZM60,49.43a2.63,2.63,0,0,1-2.62,2.63H54v-19h3.38A2.63,2.63,0,0,1,60,35.68Z"/><path d="M16.35,24a2,2,0,0,0-1.68,2v5.2a2,2,0,0,0,1.68,2l3,.49.12.28-1.78,2.48A2,2,0,0,0,17.9,39l3.69,3.69a2,2,0,0,0,2.58.21l2.48-1.78.28.12.49,3a2,2,0,0,0,2,1.68h5.2a2,2,0,0,0,2-1.68l.49-3,.28-.12,2.48,1.78a2,2,0,0,0,2.58-.21L46.1,39a2,2,0,0,0,.21-2.58l-1.78-2.48.12-.28,3-.49a2,2,0,0,0,1.68-2V26a2,2,0,0,0-1.68-2l-3-.49-.12-.28,1.78-2.48a2,2,0,0,0-.21-2.58l-3.69-3.69a2,2,0,0,0-2.58-.21L37.35,16l-.28-.12-.49-3a2,2,0,0,0-2-1.68H29.4a2,2,0,0,0-2,1.68l-.49,3-.28.12-2.48-1.78a2,2,0,0,0-2.58.21L17.9,18.15a2,2,0,0,0-.21,2.58l1.78,2.48-.12.28ZM32,20.23a8.33,8.33,0,1,1-8.33,8.33A8.33,8.33,0,0,1,32,20.23Z"/></svg>
