<svg id="Capa_1" enable-background="new 0 0 512 512" height="512" viewBox="0 0 512 512" width="512" xmlns="http://www.w3.org/2000/svg"><g><g><path d="m287 332h-242c-24.814 0-45-20.186-45-45v-242c0-24.814 20.186-45 45-45h422c24.814 0 45 20.186 45 45v242c0 4.702-2.197 9.141-5.977 11.982-3.779 2.827-8.584 3.721-13.154 2.446l-100.869-28.827-90 25.708v18.691c0 8.291-6.709 15-15 15z" fill="#ff6a4d"/></g><path d="m467 0h-210v332h30c8.291 0 15-6.709 15-15v-18.691l90-25.708 100.869 28.828c4.57 1.274 9.375.381 13.154-2.446 3.779-2.842 5.977-7.28 5.977-11.982v-242.001c0-24.814-20.186-45-45-45z" fill="#f23030"/><g><path d="m107 212h-30c-8.291 0-15 6.709-15 15s6.709 15 15 15h30c8.291 0 15-6.709 15-15s-6.709-15-15-15z" fill="#f23030"/><path d="m197 212h-30c-8.291 0-15 6.709-15 15s6.709 15 15 15h30c8.291 0 15-6.709 15-15s-6.709-15-15-15z" fill="#f23030"/><path d="m437 92h-165c-8.291 0-15 6.709-15 15s6.709 15 15 15h165c8.291 0 15-6.709 15-15s-6.709-15-15-15z" fill="#cc1414"/></g></g><g><path d="m392 512c-1.5 0-2.701-.3-4.2-.601-68.099-19.501-115.8-82.5-115.8-153.6v-70.799c0-6.601 4.501-12.601 10.8-14.401l105.08-30.023c2.693-.77 5.548-.77 8.242 0l105.08 30.023c6.299 1.8 10.8 7.8 10.8 14.401v70.8c0 71.1-47.701 134.099-115.8 153.6-1.501.3-2.702.6-4.202.6z" fill="#8df4e6"/><path d="m512 357.8v-70.8c0-6.601-4.501-12.601-10.8-14.401l-105.08-30.023c-1.347-.385-2.734-.577-4.121-.577v270.001c1.5 0 2.701-.3 4.2-.601 68.1-19.5 115.801-82.5 115.801-153.599z" fill="#7adfe3"/><path d="m392 481.324c-53.204-17.152-90-67.343-90-123.524v-59.486l90-25.714 90 25.714v59.486c0 56.18-36.796 106.372-90 123.524z" fill="#7adfe3"/><path d="m482 357.8v-59.486l-90-25.714v208.725c53.204-17.153 90-67.345 90-123.525z" fill="#55b3dc"/><path d="m377 422c-3.838 0-7.676-1.465-10.605-4.395l-30-30c-5.859-5.859-5.859-15.352 0-21.211s15.352-5.859 21.211 0l19.394 19.395 49.395-49.395c5.859-5.859 15.352-5.859 21.211 0s5.859 15.352 0 21.211l-60 60c-2.93 2.93-6.768 4.395-10.606 4.395z" fill="#f3f5f9"/><path d="m426.395 336.395-34.395 34.394v42.422l55.605-55.605c5.859-5.859 5.859-15.352 0-21.211s-15.351-5.86-21.21 0z" fill="#e1e6f0"/></g><path d="m106 152c-24.813 0-45-20.187-45-45s20.187-45 45-45 45 20.187 45 45-20.187 45-45 45z" fill="#ffdf40"/></svg>